<mxfile host="Electron" modified="2024-07-15T18:23:56.484Z" agent="Mozilla/5.0 (Windows NT 10.0; Win64; x64) AppleWebKit/537.36 (KHTML, like Gecko) draw.io/22.1.2 Chrome/114.0.5735.289 Electron/25.9.4 Safari/537.36" etag="_8yBfP7yF31LFpyQALMo" version="22.1.2" type="device">
  <diagram name="Страница — 1" id="Biqx5L4tvwCJSWoHjvzL">
    <mxGraphModel dx="1098" dy="1676" grid="1" gridSize="10" guides="1" tooltips="1" connect="1" arrows="1" fold="1" page="1" pageScale="1" pageWidth="827" pageHeight="1169" math="0" shadow="0">
      <root>
        <mxCell id="0" />
        <mxCell id="1" parent="0" />
        <mxCell id="J7_OEeDmtxXn-G467Isb-1" value="" style="swimlane;html=1;startSize=20;fontStyle=0;collapsible=0;horizontal=0;swimlaneLine=1;swimlaneFillColor=#ffffff;strokeWidth=2;whiteSpace=wrap;container=0;movable=1;resizable=1;rotatable=1;deletable=1;editable=1;locked=0;connectable=1;" parent="1" vertex="1">
          <mxGeometry x="110" y="-100" width="1250" height="420" as="geometry" />
        </mxCell>
        <mxCell id="J7_OEeDmtxXn-G467Isb-3" value="Чат-бот" style="text;html=1;strokeColor=none;fillColor=none;align=center;verticalAlign=middle;whiteSpace=wrap;rounded=0;rotation=-90;" parent="J7_OEeDmtxXn-G467Isb-1" vertex="1">
          <mxGeometry x="-20" y="180" width="60" height="30" as="geometry" />
        </mxCell>
        <mxCell id="J7_OEeDmtxXn-G467Isb-31" value="" style="points=[[0.25,0.25,0],[0.5,0,0],[0.75,0.25,0],[1,0.5,0],[0.75,0.75,0],[0.5,1,0],[0.25,0.75,0],[0,0.5,0]];shape=mxgraph.bpmn.gateway2;html=1;verticalLabelPosition=bottom;labelBackgroundColor=#ffffff;verticalAlign=top;align=center;perimeter=rhombusPerimeter;outlineConnect=0;outline=none;symbol=none;" parent="J7_OEeDmtxXn-G467Isb-1" vertex="1">
          <mxGeometry x="890" y="185" width="50" height="50" as="geometry" />
        </mxCell>
        <mxCell id="J7_OEeDmtxXn-G467Isb-64" style="edgeStyle=orthogonalEdgeStyle;rounded=0;orthogonalLoop=1;jettySize=auto;html=1;exitX=1;exitY=0.5;exitDx=0;exitDy=0;exitPerimeter=0;endArrow=none;endFill=0;" parent="J7_OEeDmtxXn-G467Isb-1" source="J7_OEeDmtxXn-G467Isb-33" edge="1">
          <mxGeometry relative="1" as="geometry">
            <mxPoint x="1160" y="210" as="targetPoint" />
          </mxGeometry>
        </mxCell>
        <mxCell id="J7_OEeDmtxXn-G467Isb-33" value="" style="points=[[0.25,0,0],[0.5,0,0],[0.75,0,0],[1,0.25,0],[1,0.5,0],[1,0.75,0],[0.75,1,0],[0.5,1,0],[0.25,1,0],[0,0.75,0],[0,0.5,0],[0,0.25,0]];shape=mxgraph.bpmn.task;whiteSpace=wrap;rectStyle=rounded;size=10;html=1;container=1;expand=0;collapsible=0;taskMarker=abstract;" parent="J7_OEeDmtxXn-G467Isb-1" vertex="1">
          <mxGeometry x="1020" y="70" width="120" height="80" as="geometry" />
        </mxCell>
        <mxCell id="J7_OEeDmtxXn-G467Isb-39" value="" style="points=[[0.25,0,0],[0.5,0,0],[0.75,0,0],[1,0.25,0],[1,0.5,0],[1,0.75,0],[0.75,1,0],[0.5,1,0],[0.25,1,0],[0,0.75,0],[0,0.5,0],[0,0.25,0]];shape=mxgraph.bpmn.task;whiteSpace=wrap;rectStyle=rounded;size=10;html=1;container=1;expand=0;collapsible=0;taskMarker=abstract;" parent="J7_OEeDmtxXn-G467Isb-1" vertex="1">
          <mxGeometry x="1020" y="170" width="120" height="80" as="geometry" />
        </mxCell>
        <mxCell id="J7_OEeDmtxXn-G467Isb-63" style="edgeStyle=orthogonalEdgeStyle;rounded=0;orthogonalLoop=1;jettySize=auto;html=1;exitX=1;exitY=0.5;exitDx=0;exitDy=0;exitPerimeter=0;endArrow=none;endFill=0;" parent="J7_OEeDmtxXn-G467Isb-1" source="J7_OEeDmtxXn-G467Isb-38" edge="1">
          <mxGeometry relative="1" as="geometry">
            <mxPoint x="1160" y="210" as="targetPoint" />
          </mxGeometry>
        </mxCell>
        <mxCell id="J7_OEeDmtxXn-G467Isb-38" value="" style="points=[[0.25,0,0],[0.5,0,0],[0.75,0,0],[1,0.25,0],[1,0.5,0],[1,0.75,0],[0.75,1,0],[0.5,1,0],[0.25,1,0],[0,0.75,0],[0,0.5,0],[0,0.25,0]];shape=mxgraph.bpmn.task;whiteSpace=wrap;rectStyle=rounded;size=10;html=1;container=1;expand=0;collapsible=0;taskMarker=abstract;" parent="J7_OEeDmtxXn-G467Isb-1" vertex="1">
          <mxGeometry x="1020" y="270" width="120" height="80" as="geometry" />
        </mxCell>
        <mxCell id="J7_OEeDmtxXn-G467Isb-40" style="edgeStyle=orthogonalEdgeStyle;rounded=0;orthogonalLoop=1;jettySize=auto;html=1;exitX=1;exitY=0.5;exitDx=0;exitDy=0;exitPerimeter=0;entryX=0;entryY=0.5;entryDx=0;entryDy=0;entryPerimeter=0;" parent="J7_OEeDmtxXn-G467Isb-1" source="J7_OEeDmtxXn-G467Isb-31" target="J7_OEeDmtxXn-G467Isb-39" edge="1">
          <mxGeometry relative="1" as="geometry" />
        </mxCell>
        <mxCell id="J7_OEeDmtxXn-G467Isb-59" value="Посмотреть &lt;br&gt;заметку" style="edgeLabel;html=1;align=center;verticalAlign=middle;resizable=0;points=[];labelPosition=center;verticalLabelPosition=middle;" parent="J7_OEeDmtxXn-G467Isb-40" vertex="1" connectable="0">
          <mxGeometry x="-0.2853" y="-3" relative="1" as="geometry">
            <mxPoint x="11" y="-18" as="offset" />
          </mxGeometry>
        </mxCell>
        <mxCell id="J7_OEeDmtxXn-G467Isb-41" style="edgeStyle=orthogonalEdgeStyle;rounded=0;orthogonalLoop=1;jettySize=auto;html=1;exitX=0.5;exitY=1;exitDx=0;exitDy=0;exitPerimeter=0;entryX=0;entryY=0.5;entryDx=0;entryDy=0;entryPerimeter=0;" parent="J7_OEeDmtxXn-G467Isb-1" source="J7_OEeDmtxXn-G467Isb-31" target="J7_OEeDmtxXn-G467Isb-38" edge="1">
          <mxGeometry relative="1" as="geometry" />
        </mxCell>
        <mxCell id="J7_OEeDmtxXn-G467Isb-60" value="Удалить заметку" style="edgeLabel;html=1;align=center;verticalAlign=middle;resizable=0;points=[];" parent="J7_OEeDmtxXn-G467Isb-41" vertex="1" connectable="0">
          <mxGeometry x="0.2175" y="-2" relative="1" as="geometry">
            <mxPoint x="20" y="-12" as="offset" />
          </mxGeometry>
        </mxCell>
        <mxCell id="J7_OEeDmtxXn-G467Isb-42" style="edgeStyle=orthogonalEdgeStyle;rounded=0;orthogonalLoop=1;jettySize=auto;html=1;exitX=0.5;exitY=0;exitDx=0;exitDy=0;exitPerimeter=0;entryX=0;entryY=0.5;entryDx=0;entryDy=0;entryPerimeter=0;" parent="J7_OEeDmtxXn-G467Isb-1" source="J7_OEeDmtxXn-G467Isb-31" target="J7_OEeDmtxXn-G467Isb-33" edge="1">
          <mxGeometry relative="1" as="geometry" />
        </mxCell>
        <mxCell id="J7_OEeDmtxXn-G467Isb-58" value="Создать заметку" style="edgeLabel;html=1;align=center;verticalAlign=middle;resizable=0;points=[];" parent="J7_OEeDmtxXn-G467Isb-42" vertex="1" connectable="0">
          <mxGeometry x="0.2526" relative="1" as="geometry">
            <mxPoint x="8" y="-10" as="offset" />
          </mxGeometry>
        </mxCell>
        <mxCell id="J7_OEeDmtxXn-G467Isb-52" value="Приветсвенное сообщение и вывод меню" style="points=[[0.25,0,0],[0.5,0,0],[0.75,0,0],[1,0.25,0],[1,0.5,0],[1,0.75,0],[0.75,1,0],[0.5,1,0],[0.25,1,0],[0,0.75,0],[0,0.5,0],[0,0.25,0]];shape=mxgraph.bpmn.task;whiteSpace=wrap;rectStyle=rounded;size=10;html=1;container=1;expand=0;collapsible=0;taskMarker=abstract;" parent="J7_OEeDmtxXn-G467Isb-1" vertex="1">
          <mxGeometry x="520" y="210" width="110" height="73.33" as="geometry" />
        </mxCell>
        <mxCell id="J7_OEeDmtxXn-G467Isb-61" value="" style="points=[[0.145,0.145,0],[0.5,0,0],[0.855,0.145,0],[1,0.5,0],[0.855,0.855,0],[0.5,1,0],[0.145,0.855,0],[0,0.5,0]];shape=mxgraph.bpmn.event;html=1;verticalLabelPosition=bottom;labelBackgroundColor=#ffffff;verticalAlign=top;align=center;perimeter=ellipsePerimeter;outlineConnect=0;aspect=fixed;outline=end;symbol=terminate2;" parent="J7_OEeDmtxXn-G467Isb-1" vertex="1">
          <mxGeometry x="1180" y="185" width="50" height="50" as="geometry" />
        </mxCell>
        <mxCell id="J7_OEeDmtxXn-G467Isb-62" style="edgeStyle=orthogonalEdgeStyle;rounded=0;orthogonalLoop=1;jettySize=auto;html=1;exitX=1;exitY=0.5;exitDx=0;exitDy=0;exitPerimeter=0;entryX=0;entryY=0.5;entryDx=0;entryDy=0;entryPerimeter=0;" parent="J7_OEeDmtxXn-G467Isb-1" source="J7_OEeDmtxXn-G467Isb-39" target="J7_OEeDmtxXn-G467Isb-61" edge="1">
          <mxGeometry relative="1" as="geometry" />
        </mxCell>
        <mxCell id="J7_OEeDmtxXn-G467Isb-2" value="" style="swimlane;html=1;startSize=20;fontStyle=0;collapsible=0;horizontal=0;swimlaneLine=1;swimlaneFillColor=#ffffff;strokeWidth=2;whiteSpace=wrap;container=0;labelPosition=center;verticalLabelPosition=bottom;align=center;verticalAlign=top;movable=1;resizable=1;rotatable=1;deletable=1;editable=1;locked=0;connectable=1;" parent="1" vertex="1">
          <mxGeometry x="110" y="320" width="1250" height="150" as="geometry" />
        </mxCell>
        <mxCell id="J7_OEeDmtxXn-G467Isb-4" value="Пользователь" style="text;html=1;strokeColor=none;fillColor=none;align=center;verticalAlign=middle;whiteSpace=wrap;rounded=0;rotation=-90;" parent="J7_OEeDmtxXn-G467Isb-2" vertex="1">
          <mxGeometry x="-20" y="65" width="60" height="30" as="geometry" />
        </mxCell>
        <mxCell id="J7_OEeDmtxXn-G467Isb-7" value="Отправка команды&amp;nbsp;&lt;br&gt;/start" style="points=[[0.145,0.145,0],[0.5,0,0],[0.855,0.145,0],[1,0.5,0],[0.855,0.855,0],[0.5,1,0],[0.145,0.855,0],[0,0.5,0]];shape=mxgraph.bpmn.event;html=1;verticalLabelPosition=bottom;labelBackgroundColor=#ffffff;verticalAlign=top;align=center;perimeter=ellipsePerimeter;outlineConnect=0;aspect=fixed;outline=standard;symbol=message;" parent="1" vertex="1">
          <mxGeometry x="170" y="370" width="50" height="50" as="geometry" />
        </mxCell>
        <mxCell id="J7_OEeDmtxXn-G467Isb-10" value="Проверка пользователя" style="points=[[0.25,0.25,0],[0.5,0,0],[0.75,0.25,0],[1,0.5,0],[0.75,0.75,0],[0.5,1,0],[0.25,0.75,0],[0,0.5,0]];shape=mxgraph.bpmn.gateway2;html=1;verticalLabelPosition=bottom;labelBackgroundColor=#ffffff;verticalAlign=top;align=center;perimeter=rhombusPerimeter;outlineConnect=0;outline=none;symbol=none;" parent="1" vertex="1">
          <mxGeometry x="240" y="180" width="50" height="50" as="geometry" />
        </mxCell>
        <mxCell id="J7_OEeDmtxXn-G467Isb-11" style="edgeStyle=orthogonalEdgeStyle;rounded=0;orthogonalLoop=1;jettySize=auto;html=1;exitX=0.5;exitY=0;exitDx=0;exitDy=0;exitPerimeter=0;entryX=0;entryY=0.5;entryDx=0;entryDy=0;entryPerimeter=0;" parent="1" source="J7_OEeDmtxXn-G467Isb-7" target="J7_OEeDmtxXn-G467Isb-10" edge="1">
          <mxGeometry relative="1" as="geometry" />
        </mxCell>
        <mxCell id="J7_OEeDmtxXn-G467Isb-12" value="Загрузка данных о пользователе в базу данных" style="points=[[0.25,0,0],[0.5,0,0],[0.75,0,0],[1,0.25,0],[1,0.5,0],[1,0.75,0],[0.75,1,0],[0.5,1,0],[0.25,1,0],[0,0.75,0],[0,0.5,0],[0,0.25,0]];shape=mxgraph.bpmn.task;whiteSpace=wrap;rectStyle=rounded;size=10;html=1;container=1;expand=0;collapsible=0;taskMarker=abstract;" parent="1" vertex="1">
          <mxGeometry x="414" y="40" width="120" height="80" as="geometry" />
        </mxCell>
        <mxCell id="J7_OEeDmtxXn-G467Isb-13" value="Использование имеющихся данных о пользователе" style="points=[[0.25,0,0],[0.5,0,0],[0.75,0,0],[1,0.25,0],[1,0.5,0],[1,0.75,0],[0.75,1,0],[0.5,1,0],[0.25,1,0],[0,0.75,0],[0,0.5,0],[0,0.25,0]];shape=mxgraph.bpmn.task;whiteSpace=wrap;rectStyle=rounded;size=10;html=1;container=1;expand=0;collapsible=0;taskMarker=abstract;" parent="1" vertex="1">
          <mxGeometry x="414" y="165" width="120" height="80" as="geometry" />
        </mxCell>
        <mxCell id="J7_OEeDmtxXn-G467Isb-14" style="edgeStyle=orthogonalEdgeStyle;rounded=0;orthogonalLoop=1;jettySize=auto;html=1;exitX=1;exitY=0.5;exitDx=0;exitDy=0;exitPerimeter=0;entryX=0;entryY=0.5;entryDx=0;entryDy=0;entryPerimeter=0;" parent="1" source="J7_OEeDmtxXn-G467Isb-10" target="J7_OEeDmtxXn-G467Isb-13" edge="1">
          <mxGeometry relative="1" as="geometry" />
        </mxCell>
        <mxCell id="J7_OEeDmtxXn-G467Isb-17" value="Данные о пользователе &lt;br&gt;существуют в БД" style="edgeLabel;html=1;align=center;verticalAlign=middle;resizable=0;points=[];" parent="J7_OEeDmtxXn-G467Isb-14" vertex="1" connectable="0">
          <mxGeometry x="-0.2" y="1" relative="1" as="geometry">
            <mxPoint x="10" y="-14" as="offset" />
          </mxGeometry>
        </mxCell>
        <mxCell id="J7_OEeDmtxXn-G467Isb-15" style="edgeStyle=orthogonalEdgeStyle;rounded=0;orthogonalLoop=1;jettySize=auto;html=1;exitX=0.5;exitY=0;exitDx=0;exitDy=0;exitPerimeter=0;entryX=0;entryY=0.5;entryDx=0;entryDy=0;entryPerimeter=0;" parent="1" source="J7_OEeDmtxXn-G467Isb-10" target="J7_OEeDmtxXn-G467Isb-12" edge="1">
          <mxGeometry relative="1" as="geometry" />
        </mxCell>
        <mxCell id="J7_OEeDmtxXn-G467Isb-16" value="Новый пользователь" style="edgeLabel;html=1;align=center;verticalAlign=middle;resizable=0;points=[];" parent="J7_OEeDmtxXn-G467Isb-15" vertex="1" connectable="0">
          <mxGeometry x="0.4162" y="1" relative="1" as="geometry">
            <mxPoint x="-6" y="-9" as="offset" />
          </mxGeometry>
        </mxCell>
        <mxCell id="J7_OEeDmtxXn-G467Isb-18" value="" style="shape=datastore;html=1;labelPosition=center;verticalLabelPosition=bottom;align=center;verticalAlign=top;" parent="1" vertex="1">
          <mxGeometry x="340" y="260" width="50" height="50" as="geometry" />
        </mxCell>
        <mxCell id="J7_OEeDmtxXn-G467Isb-19" style="rounded=0;orthogonalLoop=1;jettySize=auto;html=1;exitX=0.5;exitY=0;exitDx=0;exitDy=0;entryX=0.031;entryY=0.948;entryDx=0;entryDy=0;entryPerimeter=0;dashed=1;dashPattern=12 12;" parent="1" source="J7_OEeDmtxXn-G467Isb-18" target="J7_OEeDmtxXn-G467Isb-13" edge="1">
          <mxGeometry relative="1" as="geometry" />
        </mxCell>
        <mxCell id="J7_OEeDmtxXn-G467Isb-20" value="" style="shape=datastore;html=1;labelPosition=center;verticalLabelPosition=bottom;align=center;verticalAlign=top;" parent="1" vertex="1">
          <mxGeometry x="350" y="-30" width="50" height="50" as="geometry" />
        </mxCell>
        <mxCell id="J7_OEeDmtxXn-G467Isb-21" style="rounded=0;orthogonalLoop=1;jettySize=auto;html=1;exitX=0.5;exitY=1;exitDx=0;exitDy=0;entryX=0.288;entryY=-0.011;entryDx=0;entryDy=0;entryPerimeter=0;dashed=1;dashPattern=12 12;endArrow=none;endFill=0;startArrow=classic;startFill=1;" parent="1" source="J7_OEeDmtxXn-G467Isb-20" target="J7_OEeDmtxXn-G467Isb-12" edge="1">
          <mxGeometry relative="1" as="geometry">
            <mxPoint x="428" y="251" as="targetPoint" />
          </mxGeometry>
        </mxCell>
        <mxCell id="J7_OEeDmtxXn-G467Isb-29" value="Выбор пункта меню" style="points=[[0.25,0,0],[0.5,0,0],[0.75,0,0],[1,0.25,0],[1,0.5,0],[1,0.75,0],[0.75,1,0],[0.5,1,0],[0.25,1,0],[0,0.75,0],[0,0.5,0],[0,0.25,0]];shape=mxgraph.bpmn.task;whiteSpace=wrap;rectStyle=rounded;size=10;html=1;container=1;expand=0;collapsible=0;taskMarker=abstract;" parent="1" vertex="1">
          <mxGeometry x="790" y="355" width="120" height="80" as="geometry" />
        </mxCell>
        <mxCell id="J7_OEeDmtxXn-G467Isb-32" style="edgeStyle=orthogonalEdgeStyle;rounded=0;orthogonalLoop=1;jettySize=auto;html=1;exitX=1;exitY=0.5;exitDx=0;exitDy=0;exitPerimeter=0;entryX=0;entryY=0.5;entryDx=0;entryDy=0;entryPerimeter=0;" parent="1" source="J7_OEeDmtxXn-G467Isb-29" target="J7_OEeDmtxXn-G467Isb-31" edge="1">
          <mxGeometry relative="1" as="geometry" />
        </mxCell>
        <mxCell id="J7_OEeDmtxXn-G467Isb-53" style="edgeStyle=orthogonalEdgeStyle;rounded=0;orthogonalLoop=1;jettySize=auto;html=1;exitX=1;exitY=0.5;exitDx=0;exitDy=0;exitPerimeter=0;entryX=0.5;entryY=0;entryDx=0;entryDy=0;entryPerimeter=0;" parent="1" source="J7_OEeDmtxXn-G467Isb-12" target="J7_OEeDmtxXn-G467Isb-52" edge="1">
          <mxGeometry relative="1" as="geometry" />
        </mxCell>
        <mxCell id="J7_OEeDmtxXn-G467Isb-55" style="edgeStyle=orthogonalEdgeStyle;rounded=0;orthogonalLoop=1;jettySize=auto;html=1;exitX=1;exitY=0.5;exitDx=0;exitDy=0;exitPerimeter=0;entryX=0.5;entryY=1;entryDx=0;entryDy=0;entryPerimeter=0;" parent="1" source="J7_OEeDmtxXn-G467Isb-13" target="J7_OEeDmtxXn-G467Isb-52" edge="1">
          <mxGeometry relative="1" as="geometry" />
        </mxCell>
        <mxCell id="J7_OEeDmtxXn-G467Isb-56" style="edgeStyle=orthogonalEdgeStyle;rounded=0;orthogonalLoop=1;jettySize=auto;html=1;exitX=1;exitY=0.5;exitDx=0;exitDy=0;exitPerimeter=0;entryX=0;entryY=0.5;entryDx=0;entryDy=0;entryPerimeter=0;" parent="1" source="J7_OEeDmtxXn-G467Isb-52" target="J7_OEeDmtxXn-G467Isb-29" edge="1">
          <mxGeometry relative="1" as="geometry" />
        </mxCell>
        <mxCell id="4fqF_in1uwqjKM3dJbYD-1" value="" style="points=[[0.145,0.145,0],[0.5,0,0],[0.855,0.145,0],[1,0.5,0],[0.855,0.855,0],[0.5,1,0],[0.145,0.855,0],[0,0.5,0]];shape=mxgraph.bpmn.event;html=1;verticalLabelPosition=bottom;labelBackgroundColor=#ffffff;verticalAlign=top;align=center;perimeter=ellipsePerimeter;outlineConnect=0;aspect=fixed;outline=standard;symbol=general;" vertex="1" parent="1">
          <mxGeometry x="170" y="370" width="50" height="50" as="geometry" />
        </mxCell>
      </root>
    </mxGraphModel>
  </diagram>
</mxfile>
